# xmcd
#
# Track frame offsets:
# 150
# 12351
# 26589
# 34899
# 49431
# 60657
# 74771
# 90390
# 100572
# 112925
# 123814
# 133942
# 145192
# 156717
# 171781
# 184761
# 197721
# 210168
# 222175
# 235295
# 246017
# 259462
# 273352
#
# Disc length: 3695 seconds
#
#
# Revision: 0
# Processed by: cddbd v1.5.2PL0 Copyright (c) Steve Scherf et al.
# Submitted via: FreeRIP 2.944 
#
DISCID=530e6d17
DTITLE=Various Artist - Housewives' Choice
DYEAR=2001
DGENRE=Oldies
TTITLE0=Housewives Choice. In Party Mood
TTITLE1=Doris Day. Sentimental Journey
TTITLE2=Frank Sinatra. I've Got You Under My Skin
TTITLE3=Nat King Cole. Mona Lisa
TTITLE4=Bing Crosby. Swinging On A Star
TTITLE5=Mel Torme. Blue Moon
TTITLE6=Perry Como. Same Enchanted Evening
TTITLE7=Bing Crosby And Rose Clooney. Let's Call The Whole Thing Of
TTITLE8=Frank Sinatra. Come Fly With Me
TTITLE9=Guy Mitchell. Singing The Blues
TTITLE10=Frankie Laine. I Believe
TTITLE11=The Platters. Smoke Gets In Your Eyes
TTITLE12=Frankie Laine. That's My Desire
TTITLE13=Nat King Cole. Embraceable You
TTITLE14=Mantovani And His Orchestra. Charmaine
TTITLE15=Melodi Light Orchestra. Elizabethan Serenade
TTITLE16=Dick Haymes. Love Letters
TTITLE17=Queens Hall Light Orchestra. Portrait Of A Flirt
TTITLE18=Jo Stafford. Long Ago And Far Away
TTITLE19=Dinah Shore. You Keep Coming Back Like A Song
TTITLE20=Queens Hall Light Orchestra. Coronation Scot
TTITLE21=Anne Shelton. I'll Be Seeing You
TTITLE22=Housewives Choice. In PartyMood
EXTD=
EXTT0=
EXTT1=
EXTT2=
EXTT3=
EXTT4=
EXTT5=
EXTT6=
EXTT7=
EXTT8=
EXTT9=
EXTT10=
EXTT11=
EXTT12=
EXTT13=
EXTT14=
EXTT15=
EXTT16=
EXTT17=
EXTT18=
EXTT19=
EXTT20=
EXTT21=
EXTT22=
PLAYORDER=
